<svg width="22" height="24" viewBox="0 0 22 24" fill="none" xmlns="http://www.w3.org/2000/svg">
<path d="M21.9996 13.2149C22.0228 15.8801 21.0412 18.4573 19.2481 20.439C17.455 22.4207 14.9804 23.6631 12.3117 23.9215C12.3117 23.9215 5.35672 24.0981 3.05532 23.9215C2.63388 23.8712 2.23337 23.7109 1.89452 23.4568C1.55566 23.2027 1.29057 22.8639 1.1262 22.4749C1.44995 22.6167 1.79676 22.6993 2.14999 22.7188C2.90302 22.7861 4.1891 22.8197 5.98284 22.8197C8.61422 22.8197 11.4825 22.744 11.5079 22.744H11.5587C14.4258 22.502 17.0919 21.1814 19.0128 19.0518C20.6604 17.2469 21.704 14.9783 21.9996 12.5588V13.2149Z" fill="white"/>
<path d="M21.1534 10.8683C21.1741 13.5347 20.1892 16.1121 18.3928 18.0924C16.5964 20.0727 14.1189 21.3122 11.4486 21.5665C11.4486 21.5665 4.49362 21.7432 2.19221 21.5665C1.57067 21.4707 1.00547 21.1532 0.602197 20.6734C0.198922 20.1936 -0.0148524 19.5843 0.000802771 18.9593V2.66802C-0.00695585 2.03975 0.216762 1.43037 0.629782 0.954745C1.0428 0.47912 1.61659 0.170113 2.24298 0.0859746C4.55284 -0.107468 11.4994 0.0859746 11.4994 0.0859746C14.1752 0.353379 16.6524 1.60998 18.4404 3.6069C20.2283 5.60381 21.1966 8.19538 21.1534 10.8683Z" fill="white"/>
</svg>
