<svg xmlns="http://www.w3.org/2000/svg" width="613.68" height="78.98" viewBox="0 0 613.68 78.98">
  <title>Asset 3</title>
  <g id="Layer_2" data-name="Layer 2">
    <g id="Layer_1-2" data-name="Layer 1">
      <g>
        <g>
          <path d="M37.89,38.65,63.73,23.73A12.71,12.71,0,1,0,51,1.71L6.36,27.49Z" style="fill: #ea4335"/>
          <path d="M57.36,77a12.72,12.72,0,0,0,6.37-23.73L19.08,27.49a12.71,12.71,0,0,0-12.72,22L51,75.29A12.59,12.59,0,0,0,57.36,77Z" style="fill: #4285f4"/>
          <path d="M101.78,77a12.62,12.62,0,0,0,6.35-1.71l44.65-25.78L121.66,38.12,95.41,53.27A12.72,12.72,0,0,0,101.78,77Z" style="fill: #fbbc04"/>
          <path d="M146.41,51.22a12.72,12.72,0,0,0,6.37-23.73L108.13,1.71a12.71,12.71,0,1,0-12.72,22l44.66,25.78A12.61,12.61,0,0,0,146.41,51.22Z" style="fill: #0f9d58"/>
        </g>
        <g>
          <path d="M206.38,59.9a26.2,26.2,0,0,1-9.72-9.72,26.68,26.68,0,0,1-3.6-13.68,26.73,26.73,0,0,1,3.6-13.68A26.42,26.42,0,0,1,219.77,9.58a28.39,28.39,0,0,1,10.69,2,21.53,21.53,0,0,1,8.25,5.69l-4.39,4.39A16,16,0,0,0,228.05,17a20.77,20.77,0,0,0-8.21-1.62A20.49,20.49,0,0,0,209.66,18a19.91,19.91,0,0,0-7.56,7.41,21.2,21.2,0,0,0-2.85,11.05,21.23,21.23,0,0,0,2.85,11.06A19.85,19.85,0,0,0,209.69,55a22.23,22.23,0,0,0,18.83,1,19.5,19.5,0,0,0,6-4.28,15.9,15.9,0,0,0,3-4.86,22,22,0,0,0,1.44-6.3H219.92V34.85h24.76a21.33,21.33,0,0,1,.36,3.74,28.78,28.78,0,0,1-1.51,9.25,20.48,20.48,0,0,1-4.82,7.89q-7.12,7.71-18.94,7.7A26.25,26.25,0,0,1,206.38,59.9Z" style="fill: #fff"/>
          <path d="M254.12,10.73h15.55A28.07,28.07,0,0,1,283.49,14a22.53,22.53,0,0,1,9.07,9.11,27.63,27.63,0,0,1,3.17,13.39,27.67,27.67,0,0,1-3.17,13.4,22.51,22.51,0,0,1-9.07,9.1,28,28,0,0,1-13.82,3.28H254.12Zm15.55,45.72q9.13,0,14.51-5.26t5.36-14.69q0-9.42-5.36-14.68t-14.51-5.26h-9.51V56.45Z" style="fill: #fff"/>
          <path d="M315.53,59.9a26.2,26.2,0,0,1-9.72-9.72,26.68,26.68,0,0,1-3.6-13.68,26.73,26.73,0,0,1,3.6-13.68A26.42,26.42,0,0,1,328.92,9.58a28.39,28.39,0,0,1,10.69,2,21.53,21.53,0,0,1,8.25,5.69l-4.39,4.39A16,16,0,0,0,337.2,17a20.76,20.76,0,0,0-8.2-1.62A20.5,20.5,0,0,0,318.81,18a19.91,19.91,0,0,0-7.56,7.41A21.2,21.2,0,0,0,308.4,36.5a21.23,21.23,0,0,0,2.85,11.06A19.85,19.85,0,0,0,318.84,55a22.23,22.23,0,0,0,18.83,1,19.5,19.5,0,0,0,6-4.28,15.9,15.9,0,0,0,3-4.86,22,22,0,0,0,1.44-6.3H329.07V34.85h24.76a21.33,21.33,0,0,1,.36,3.74,28.78,28.78,0,0,1-1.51,9.25,20.48,20.48,0,0,1-4.82,7.89q-7.12,7.71-18.94,7.7A26.25,26.25,0,0,1,315.53,59.9Z" style="fill: #fff"/>
          <path d="M380,10.73h7.49l25.84,41h.29l-.29-9.94V10.73h6.12V62.28h-6.33L386,19.3h-.29l.29,9.93V62.28h-6Z" style="fill: #fff"/>
          <path d="M433.18,61.85a11.84,11.84,0,0,1-4.9-4.36,11.69,11.69,0,0,1-1.73-6.3,10.75,10.75,0,0,1,4.39-9.11A18.08,18.08,0,0,1,442,38.81a25.08,25.08,0,0,1,6.16.72,16,16,0,0,1,4.35,1.65V39a8.29,8.29,0,0,0-2.88-6.59,10.76,10.76,0,0,0-7.27-2.48,12.26,12.26,0,0,0-5.69,1.33,10.5,10.5,0,0,0-4.1,3.71L428,31.46a14.78,14.78,0,0,1,5.94-5.18,18.63,18.63,0,0,1,8.39-1.87q7.49,0,11.77,3.92T458.38,39V62.28h-5.84V57h-.28a13.12,13.12,0,0,1-4.76,4.54,13.69,13.69,0,0,1-7.12,1.87A16,16,0,0,1,433.18,61.85Zm13.53-5.4A12,12,0,0,0,451,52.2a11.17,11.17,0,0,0,1.58-5.83,15,15,0,0,0-4.24-1.87,19.33,19.33,0,0,0-5.33-.72q-5,0-7.6,2.08a6.68,6.68,0,0,0-2.55,5.4,6,6,0,0,0,2.3,4.9A8.94,8.94,0,0,0,441,58,11.09,11.09,0,0,0,446.71,56.45Z" style="fill: #fff"/>
          <path d="M472,76a14.78,14.78,0,0,1-5.65-7.27l5.54-2.38a11,11,0,0,0,4.07,5.15,11.47,11.47,0,0,0,6.73,2q5.69,0,8.82-3.17t3.13-9.07V57.1h-.29a13.5,13.5,0,0,1-5.07,4.57,15.55,15.55,0,0,1-7.45,1.76A16,16,0,0,1,473.1,61,17.52,17.52,0,0,1,466.87,54a21.71,21.71,0,0,1-2.3-10.12,21.75,21.75,0,0,1,2.3-10.08,17.43,17.43,0,0,1,6.23-7,16,16,0,0,1,8.68-2.47,15.55,15.55,0,0,1,7.45,1.76,13.28,13.28,0,0,1,5.07,4.65h.29V25.56h5.83V60.84q0,8.85-4.89,13.5T482.64,79A17.85,17.85,0,0,1,472,76Zm16.7-19.75A12,12,0,0,0,493,51.38a16.1,16.1,0,0,0,1.62-7.46A16.28,16.28,0,0,0,493,36.39a11.67,11.67,0,0,0-4.32-4.79,11.75,11.75,0,0,0-12.06,0,12,12,0,0,0-4.35,4.83,16.1,16.1,0,0,0-1.62,7.46,16.35,16.35,0,0,0,1.62,7.5,11.34,11.34,0,0,0,10.4,6.47A11.14,11.14,0,0,0,488.65,56.21Z" style="fill: #fff"/>
          <path d="M509.21,25.56H515V31h.29a13.18,13.18,0,0,1,5-4.71,14.85,14.85,0,0,1,7.53-1.91,16.5,16.5,0,0,1,8.92,2.52,17.56,17.56,0,0,1,6.34,7,21.45,21.45,0,0,1,2.3,10,21.38,21.38,0,0,1-2.3,10,17.55,17.55,0,0,1-6.34,6.95,16.5,16.5,0,0,1-8.92,2.52,15,15,0,0,1-7.53-1.91,13.34,13.34,0,0,1-5-4.64H515l.29,5V77.83h-6.12Zm23.9,30.6a12.52,12.52,0,0,0,4.5-4.93,15.4,15.4,0,0,0,1.69-7.31,15.4,15.4,0,0,0-1.69-7.31,12.52,12.52,0,0,0-4.5-4.93,11.18,11.18,0,0,0-12,0,12.2,12.2,0,0,0-4.46,4.9A15.55,15.55,0,0,0,515,43.92a15.55,15.55,0,0,0,1.66,7.34,12.2,12.2,0,0,0,4.46,4.9,11.18,11.18,0,0,0,12,0Z" style="fill: #fff"/>
          <path d="M555.4,59.54q-3.49-3.88-3.5-10.87V25.56H558V47.74c0,3.5.8,6.07,2.38,7.7a8.52,8.52,0,0,0,6.41,2.45,9.48,9.48,0,0,0,5.51-1.66,11.27,11.27,0,0,0,3.74-4.32,12.35,12.35,0,0,0,1.33-5.61V25.56h6.12V62.28h-5.83V57h-.29a12.08,12.08,0,0,1-4.82,4.61,14.1,14.1,0,0,1-7.06,1.87C561.1,63.43,557.72,62.14,555.4,59.54Z" style="fill: #fff"/>
          <path d="M592.58,25.56h5.83v5.9h.29a10,10,0,0,1,4.18-5,11.7,11.7,0,0,1,6.48-2,10.65,10.65,0,0,1,4.32.79v6.55a11.43,11.43,0,0,0-5.18-1.15,8.55,8.55,0,0,0-4.9,1.52A10.76,10.76,0,0,0,600,36.19a11.79,11.79,0,0,0-1.34,5.52V62.28h-6.12Z" style="fill: #fff"/>
        </g>
      </g>
    </g>
  </g>
</svg>
